<svg width="90" height="90" viewBox="0 0 90 90" fill="none" xmlns="http://www.w3.org/2000/svg">
<g clip-path="url(#clip0)">
<path d="M45 23.4214L55.6865 14.5161H69.6774V0H34.8387V14.5161H45V23.4214ZM37.7419 11.6129V2.90323H66.7742V11.6129H54.636L47.9032 17.2237V11.6129H37.7419Z" fill="white"/>
<path d="M40.6451 5.8064H43.5484V8.70962H40.6451V5.8064Z" fill="white"/>
<path d="M46.4516 5.8064H58.0645V8.70962H46.4516V5.8064Z" fill="white"/>
<path d="M60.9677 5.8064H63.871V8.70962H60.9677V5.8064Z" fill="white"/>
<path d="M73.894 87.0968L72.7203 75.3456C77.567 74.5794 81.2903 70.3826 81.2903 65.3226V46.4516H75.4839V44.4457C75.4839 42.4724 74.3994 40.7004 72.6558 39.7917C74.3895 38.1991 75.4839 35.9217 75.4839 33.3871V30.4838C75.4839 25.6803 71.5777 21.7742 66.7742 21.7742C61.9707 21.7742 58.0645 25.6803 58.0645 30.4838V33.3871C58.0645 37.1451 60.461 40.3446 63.8029 41.5637L56.0118 49.3548H47.8713C47.709 46.935 46.0469 44.8256 43.6923 44.1523L37.7419 42.454V39.8612C39.5189 38.2657 40.6452 35.9593 40.6452 33.3871V30.4838C40.6452 25.6803 36.739 21.7742 31.9355 21.7742C27.132 21.7742 23.2258 25.6803 23.2258 30.4838V33.3871C23.2258 35.9579 24.3521 38.2643 26.129 39.8612V42.4554L20.1787 44.1537C17.6993 44.8603 15.9677 47.1568 15.9677 49.7369V55.1613H10.1613V63.8709H13.0645V87.0968H0V90H90V87.0968H73.894ZM60.9677 63.8709V57.2139L71.2538 46.9279C71.9973 46.1844 72.4396 45.1857 72.5388 44.1438C72.5516 44.2451 72.5807 44.3408 72.5807 44.4457V62.4193C72.5807 64.82 70.6265 66.7742 68.2258 66.7742H56.6129V63.8709H60.9677ZM56.6129 75.4838H64.0092L65.1702 87.0968H56.6129V75.4838ZM66.9266 75.4838H69.8156L70.9766 87.0968H68.0876L66.9266 75.4838ZM75.4839 62.4193V49.3548H78.3871V65.3226C78.3871 69.3244 75.1309 72.5806 71.129 72.5806H56.6129V69.6774H68.2258C72.2277 69.6774 75.4839 66.4212 75.4839 62.4193ZM60.9677 33.3871V30.4838C60.9677 27.2815 63.5719 24.6774 66.7742 24.6774C69.9765 24.6774 72.5807 27.2815 72.5807 30.4838V33.3871C72.5807 36.5894 69.9765 39.1935 66.7742 39.1935C63.5719 39.1935 60.9677 36.5894 60.9677 33.3871ZM57.214 52.258L66.8989 42.5731C67.2023 42.2697 67.6219 42.0968 68.05 42.0968C68.9474 42.0968 69.6774 42.8268 69.6774 43.7241C69.6774 44.1523 69.5045 44.5719 69.2011 44.8752L58.9151 55.1613H43.5484C42.7474 55.1613 42.0968 54.5106 42.0968 53.7097C42.0968 52.9087 42.7474 52.258 43.5484 52.258H57.214ZM26.129 30.4838C26.129 27.2815 28.7331 24.6774 31.9355 24.6774C35.1378 24.6774 37.7419 27.2815 37.7419 30.4838V33.3871C37.7419 36.5894 35.1378 39.1935 31.9355 39.1935C28.7331 39.1935 26.129 36.5894 26.129 33.3871V30.4838ZM31.9355 42.0968C32.9547 42.0968 33.9286 41.911 34.8387 41.5885V43.1479C34.4786 43.7036 33.4785 45 31.9355 45C30.3924 45 29.3923 43.7036 29.0323 43.1479V41.5885C29.9424 41.911 30.9162 42.0968 31.9355 42.0968ZM18.871 49.7369C18.871 48.4461 19.7378 47.2993 20.9761 46.9449L26.9562 45.2367C27.7982 46.3339 29.437 47.9032 31.9355 47.9032C34.434 47.9032 36.0727 46.3339 36.9148 45.2353L42.8949 46.9435C44.007 47.2617 44.7824 48.2285 44.9376 49.3534H43.5484C41.1477 49.3534 39.1936 51.3075 39.1936 53.7082C39.1936 54.2193 39.2977 54.7041 39.4608 55.1599H18.871V49.7369ZM13.0645 58.0645H58.0645V60.9677H13.0645V58.0645ZM15.9677 69.6774H20.3226V66.7742H15.9677V63.8709H53.7097V66.7742H23.2258V69.6774H53.7097V87.0968H50.2522L47.3489 81.2903H22.3285L19.4252 87.0968H15.9677V69.6774ZM47.0059 87.0968H22.6715L24.1231 84.1935H45.5543L47.0059 87.0968Z" fill="white"/>
</g>
<defs>
<clipPath id="clip0">
<rect width="90" height="90" fill="white"/>
</clipPath>
</defs>
</svg>
