<svg width="95" height="95" viewBox="0 0 95 95" fill="none" xmlns="http://www.w3.org/2000/svg">
<g clip-path="url(#clip0)">
<path d="M47.6284 21.8924C47.5942 21.8908 47.5575 21.8891 47.5211 21.8861C44.3485 21.6111 42.1514 20.5886 40.3898 18.5628L40.3579 18.5249C40.0406 18.1433 39.6452 17.9518 39.2008 17.9559C38.7505 17.96 38.3653 18.1579 38.0555 18.5444L38.0273 18.5791C36.2742 20.5914 34.077 21.6113 30.9078 21.8859C30.8683 21.8895 30.8316 21.891 30.7974 21.8926C29.2757 21.9691 29.0546 23.1113 29.0303 23.5971C28.6287 31.3934 31.5908 37.0958 38.3577 41.547C38.6249 41.7333 38.9179 41.8265 39.2116 41.8265C39.5066 41.8265 39.8026 41.7322 40.0735 41.5435C46.8341 37.1034 49.7982 31.4012 49.4003 23.5817C49.3697 23.0989 49.1365 21.9683 47.6284 21.8924ZM39.2131 38.764C34.0022 35.1141 31.681 30.6911 31.7804 24.5936C34.8568 24.2274 37.2598 23.1827 39.2153 21.3521C41.1712 23.1831 43.5732 24.2281 46.6498 24.5942C46.7459 30.6926 44.4249 35.1158 39.2131 38.764Z" fill="white"/>
<path d="M68.8774 18.0815H56.8254C56.0567 18.0815 55.4338 18.7044 55.4338 19.4731C55.4338 20.2419 56.0567 20.8647 56.8254 20.8647H68.8774C69.6461 20.8647 70.269 20.2419 70.269 19.4731C70.269 18.7044 69.6459 18.0815 68.8774 18.0815Z" fill="white"/>
<path d="M68.8774 24.8348H56.8254C56.0567 24.8348 55.4338 25.4577 55.4338 26.2264C55.4338 26.9952 56.0567 27.618 56.8254 27.618H68.8774C69.6461 27.618 70.269 26.9952 70.269 26.2264C70.269 25.4577 69.6459 24.8348 68.8774 24.8348Z" fill="white"/>
<path d="M68.8774 31.5879H56.8254C56.0567 31.5879 55.4338 32.2108 55.4338 32.9795C55.4338 33.7482 56.0567 34.3711 56.8254 34.3711H68.8774C69.6461 34.3711 70.269 33.7482 70.269 32.9795C70.269 32.2108 69.6459 31.5879 68.8774 31.5879Z" fill="white"/>
<path d="M81.7995 40.7225L79.3669 40.7262V11.3983C79.3669 9.68685 77.972 8.29432 76.2574 8.29432H75.5886V3.39291C75.5886 1.52204 74.064 0 72.19 0H15.0499C13.1759 0 11.6514 1.52204 11.6514 3.39291V52.1526C9.01275 52.4612 6.95801 54.7091 6.95801 57.4292V84.3722C6.95801 87.3026 9.3421 89.6865 12.2724 89.6865H23.6769C24.4454 89.6865 25.0685 89.0636 25.0685 88.2949C25.0685 87.5262 24.4454 86.9033 23.6769 86.9033H12.2724C10.8768 86.9033 9.74121 85.7679 9.74121 84.3722V57.4292C9.74121 56.0337 10.8768 54.8983 12.2724 54.8983H45.9507C48.814 54.8983 52.371 54.8981 53.0705 50.7888L54.8503 45.413C55.465 43.5491 56.1725 43.5466 57.1488 43.5432L81.8019 43.5057C83.708 43.5057 85.259 45.0562 85.259 46.9623V84.3722C85.259 85.7677 84.1236 86.9033 82.7278 86.9033H80.2019V72.8834C80.2019 69.9974 77.854 67.6497 74.9678 67.6497H74.6789V63.9896C74.6789 60.4339 71.7883 57.5411 68.2352 57.5411H60.1914C56.6356 57.5411 53.7425 60.4339 53.7425 63.9896V67.6497H53.4536C50.5675 67.6497 48.2196 69.9974 48.2196 72.8834V86.9033H30.939C30.1705 86.9033 29.5474 87.5262 29.5474 88.2949C29.5474 89.0636 30.1705 89.6865 30.939 89.6865H48.2196V89.7665C48.2196 92.6525 50.5675 95.0002 53.4536 95.0002H74.9674C77.8536 95.0002 80.2015 92.6525 80.2015 89.7665V89.6865H82.7274C85.6577 89.6865 88.0418 87.3026 88.0418 84.3722V46.9623C88.042 43.5217 85.2427 40.7225 81.7995 40.7225ZM57.1416 40.76C55.3162 40.7665 53.3024 41.2207 52.2075 44.5396L50.3934 50.0192C50.3689 50.0928 50.3509 50.1687 50.3391 50.2453C50.0949 51.8355 49.4386 52.1151 45.9507 52.1151H23.1045V11.3983C23.1045 11.2245 23.2538 11.0775 23.4309 11.0775H37.4361C38.2047 11.0775 38.8277 10.4546 38.8277 9.68592C38.8277 8.9172 38.2047 8.29432 37.4361 8.29432H23.4309C21.7162 8.29432 20.3213 9.68685 20.3213 11.3983V52.1151H14.4346V3.39291C14.4346 3.06245 14.7165 2.7832 15.0499 2.7832H72.19C72.5236 2.7832 72.8053 3.06245 72.8053 3.39291V8.29432H43.9759C43.2074 8.29432 42.5843 8.9172 42.5843 9.68592C42.5843 10.4546 43.2074 11.0775 43.9759 11.0775H76.2574C76.4342 11.0775 76.5837 11.2245 76.5837 11.3983V40.7305L57.1416 40.76ZM56.5259 63.9896C56.5259 61.9684 58.1702 60.3243 60.1916 60.3243H68.2354C70.2538 60.3243 71.8959 61.9684 71.8959 63.9896V67.6497H56.5261V63.9896H56.5259ZM77.4185 89.7663C77.4185 91.1174 76.319 92.2168 74.9676 92.2168H53.4538C52.1025 92.2168 51.0029 91.1174 51.0029 89.7663V72.8834C51.0029 71.5322 52.1025 70.4329 53.4538 70.4329H74.9676C76.319 70.4329 77.4185 71.5322 77.4185 72.8834V89.7663Z" fill="white"/>
<path d="M64.2107 75.4302C61.5813 75.4302 59.4423 77.5716 59.4423 80.2037C59.4423 82.349 60.8666 84.1674 62.8191 84.7643V87.6954C62.8191 88.4641 63.442 89.087 64.2107 89.087C64.9794 89.087 65.6023 88.4641 65.6023 87.6954V84.7643C67.5548 84.1674 68.9792 82.349 68.9792 80.2037C68.9792 77.5716 66.8399 75.4302 64.2107 75.4302ZM64.2107 82.1887C63.1161 82.1887 62.2255 81.2983 62.2255 80.2037C62.2255 79.1062 63.1161 78.2134 64.2107 78.2134C65.3054 78.2134 66.196 79.1062 66.196 80.2037C66.196 81.2983 65.3054 82.1887 64.2107 82.1887Z" fill="white"/>
</g>
<defs>
<clipPath id="clip0">
<rect width="95" height="95" fill="white"/>
</clipPath>
</defs>
</svg>
