<svg width="99" height="99" viewBox="0 0 99 99" fill="none" xmlns="http://www.w3.org/2000/svg">
<path d="M24.75 38.6719C15.3682 38.6719 7.73438 46.3057 7.73438 55.6875C7.73438 65.0693 15.3682 72.7031 24.75 72.7031C34.1318 72.7031 41.7656 65.0693 41.7656 55.6875C41.7656 46.3057 34.1318 38.6719 24.75 38.6719ZM20.1094 63.4219C19.2555 63.4219 18.5625 62.7289 18.5625 61.875C18.5625 61.0211 19.2555 60.3281 20.1094 60.3281H30.9375C33.496 60.3281 35.5781 58.246 35.5781 55.6875C35.5781 53.129 33.496 51.0469 30.9375 51.0469H27.8438C26.9899 51.0469 26.2969 50.3539 26.2969 49.5C26.2969 48.6461 26.9899 47.9531 27.8438 47.9531H36.3175C37.8025 50.1667 38.6719 52.8273 38.6719 55.6875C38.6719 58.5477 37.8025 61.2083 36.3175 63.4219H20.1094ZM17.1146 44.0596C18.0335 45.1626 18.5625 46.5269 18.5625 47.9531C18.5625 51.3655 15.7874 54.1406 12.375 54.1406C11.8908 54.1406 11.4159 54.0679 10.9472 53.9565C11.4639 49.8233 13.7904 46.25 17.1146 44.0596ZM10.8993 57.1044C11.3865 57.1833 11.8769 57.2344 12.375 57.2344C17.4936 57.2344 21.6562 53.0717 21.6562 47.9531C21.6562 46.0365 21.0406 44.1896 19.9377 42.6412C21.4397 42.0843 23.0562 41.7656 24.75 41.7656C28.0557 41.7656 31.0906 42.9289 33.4821 44.8594H27.8438C25.2852 44.8594 23.2031 46.9415 23.2031 49.5C23.2031 52.0585 25.2852 54.1406 27.8438 54.1406H30.9375C31.7914 54.1406 32.4844 54.8336 32.4844 55.6875C32.4844 56.5414 31.7914 57.2344 30.9375 57.2344H20.1094C17.5508 57.2344 15.4688 59.3165 15.4688 61.875C15.4688 64.4335 17.5508 66.5156 20.1094 66.5156H33.4821C31.0922 68.4461 28.0557 69.6094 24.75 69.6094C17.5508 69.6094 11.6124 64.118 10.8993 57.1044Z" fill="white"/>
<path d="M9.28125 41.7656C10.1356 41.7656 10.8281 41.0731 10.8281 40.2188C10.8281 39.3644 10.1356 38.6719 9.28125 38.6719C8.42693 38.6719 7.73438 39.3644 7.73438 40.2188C7.73438 41.0731 8.42693 41.7656 9.28125 41.7656Z" fill="white"/>
<path d="M41.7656 41.7656C42.6199 41.7656 43.3125 41.0731 43.3125 40.2188C43.3125 39.3644 42.6199 38.6719 41.7656 38.6719C40.9113 38.6719 40.2188 39.3644 40.2188 40.2188C40.2188 41.0731 40.9113 41.7656 41.7656 41.7656Z" fill="white"/>
<path d="M9.28125 72.7031C10.1356 72.7031 10.8281 72.0106 10.8281 71.1562C10.8281 70.3019 10.1356 69.6094 9.28125 69.6094C8.42693 69.6094 7.73438 70.3019 7.73438 71.1562C7.73438 72.0106 8.42693 72.7031 9.28125 72.7031Z" fill="white"/>
<path d="M41.7656 72.7031C42.6199 72.7031 43.3125 72.0106 43.3125 71.1562C43.3125 70.3019 42.6199 69.6094 41.7656 69.6094C40.9113 69.6094 40.2188 70.3019 40.2188 71.1562C40.2188 72.0106 40.9113 72.7031 41.7656 72.7031Z" fill="white"/>
<path d="M89.7188 1.54688H40.2188C35.954 1.54688 32.4844 5.01652 32.4844 9.28125V32.4844H6.1875C3.62897 32.4844 1.54688 34.5665 1.54688 37.125V74.25C1.54688 76.8085 3.62897 78.8906 6.1875 78.8906H32.4844V89.7188C32.4844 93.9835 35.954 97.4531 40.2188 97.4531H89.7188C93.9835 97.4531 97.4531 93.9835 97.4531 89.7188V9.28125C97.4531 5.01652 93.9835 1.54688 89.7188 1.54688ZM40.2188 4.64062H89.7188C92.2773 4.64062 94.3594 6.72272 94.3594 9.28125V13.9219H35.5781V9.28125C35.5781 6.72272 37.6602 4.64062 40.2188 4.64062ZM4.64062 74.25V37.125C4.64062 36.2711 5.33363 35.5781 6.1875 35.5781H43.3125C44.1664 35.5781 44.8594 36.2711 44.8594 37.125V74.25C44.8594 75.1039 44.1664 75.7969 43.3125 75.7969H6.1875C5.33363 75.7969 4.64062 75.1039 4.64062 74.25ZM43.3125 78.8906C45.871 78.8906 47.9531 76.8085 47.9531 74.25V37.125C47.9531 34.5665 45.871 32.4844 43.3125 32.4844H35.5781V17.0156H94.3594V81.9844H35.5781V78.8906H43.3125ZM89.7188 94.3594H40.2188C37.6602 94.3594 35.5781 92.2773 35.5781 89.7188V85.0781H94.3594V89.7188C94.3594 92.2773 92.2773 94.3594 89.7188 94.3594Z" fill="white"/>
<path d="M55.6875 7.73438H74.25V10.8281H55.6875V7.73438Z" fill="white"/>
<path d="M55.6875 88.1719H74.25V91.2656H55.6875V88.1719Z" fill="white"/>
<path d="M57.2344 44.8594H60.3281V49.5H57.2344V61.875H60.3281V66.5156H57.2344V78.8906H91.2656V66.5156H88.1719V61.875H91.2656V49.5H88.1719V44.8594H91.2656V32.4844H57.2344V44.8594ZM88.1719 75.7969H60.3281V69.6094H88.1719V75.7969ZM85.0781 66.5156H63.4219V61.875H85.0781V66.5156ZM88.1719 58.7812H60.3281V52.5938H88.1719V58.7812ZM85.0781 49.5H63.4219V44.8594H85.0781V49.5ZM60.3281 35.5781H88.1719V41.7656H60.3281V35.5781Z" fill="white"/>
<path d="M72.7031 20.1094H75.7969V23.2031H72.7031V20.1094Z" fill="white"/>
<path d="M66.5156 20.1094H69.6094V23.2031H66.5156V20.1094Z" fill="white"/>
<path d="M60.3281 20.1094H63.4219V23.2031H60.3281V20.1094Z" fill="white"/>
<path d="M54.1406 20.1094H57.2344V23.2031H54.1406V20.1094Z" fill="white"/>
<path d="M47.9531 20.1094H51.0469V23.2031H47.9531V20.1094Z" fill="white"/>
<path d="M72.7031 26.2969H75.7969V29.3906H72.7031V26.2969Z" fill="white"/>
<path d="M41.7656 20.1094H44.8594V23.2031H41.7656V20.1094Z" fill="white"/>
<path d="M41.7656 26.2969H44.8594V29.3906H41.7656V26.2969Z" fill="white"/>
</svg>
