<svg width="105" height="105" viewBox="0 0 105 105" fill="none" xmlns="http://www.w3.org/2000/svg">
<path d="M96.7969 93.3171C100.536 92.4016 103.359 88.4264 103.359 83.6719C103.359 78.9174 100.536 74.9421 96.7969 74.0266V21.3281H93.5156V14.7656H86.9531V8.20313H83.6309L83.6719 1.65048L80.3906 1.62915L80.3496 8.20313H77.1094V14.7656H70.5469V21.3281H67.2656V35.5655C63.7088 36.5318 60.3783 38.0986 57.4219 40.192V24.6094H63.9844V14.7656H55.7812V8.20313H52.459L52.5 1.65048L49.2188 1.62915L49.1777 8.20313H45.9375V14.7656H37.7344V24.6094H44.2969V56.1406L37.7344 54.4999V41.0156H41.0156V37.7344H31.1719V27.8906H27.8906V37.7344H24.6094V34.4531H21.3281V37.7344H18.0469V31.1719H14.7656V37.7344H4.92188V41.0156H8.20312V91.9177C6.22289 93.4156 4.92188 95.7682 4.92188 98.4375C4.92188 98.992 4.9957 99.5384 5.10562 100.078H1.64062V103.359H103.359V100.078H96.7969V93.3171ZM47.5781 90.9399C45.2337 89.9243 42.4134 90.0523 40.1986 91.3418C38.0412 88.597 34.7238 86.9531 31.1719 86.9531C28.747 86.9531 26.4862 87.716 24.6094 89.022V54.6016L47.5781 60.3438V90.9399ZM48.8152 57.2693L48.9973 56.8149C52.6198 45.9244 62.475 38.4431 73.8281 37.782V94.6559C72.0021 93.7831 69.9464 93.3614 67.8218 93.5681C65.9531 89.5601 61.9336 86.9531 57.4219 86.9531C55.0315 86.9531 52.7559 87.7127 50.8594 89.0367V57.7812L48.8152 57.2693ZM80.3906 83.6719V89.8308C78.4859 88.9252 77.1094 86.52 77.1094 83.6719C77.1094 80.0527 79.3177 77.1094 82.0312 77.1094C84.7448 77.1094 86.9531 80.0527 86.9531 83.6719C86.9531 86.52 85.5766 88.9252 83.6719 89.8308V83.6719H80.3906ZM77.1094 97.0184V91.5272C78.0642 92.3918 79.1766 93.0185 80.3906 93.3155V100.078H79.2438C78.6959 98.9313 77.9756 97.9059 77.1094 97.0184ZM83.6719 93.3171C85.6767 92.8266 87.4092 91.4501 88.5938 89.5535C89.7783 91.4517 91.5108 92.8266 93.5156 93.3171V100.078H83.6719V93.3171ZM100.078 83.6719C100.078 86.52 98.7016 88.9252 96.7969 89.8308V83.6719H93.5156V89.8308C91.6109 88.9252 90.2344 86.52 90.2344 83.6719C90.2344 80.0527 92.4427 77.1094 95.1562 77.1094C97.8698 77.1094 100.078 80.0527 100.078 83.6719ZM80.3906 11.4844H83.6719V14.7656H80.3906V11.4844ZM73.8281 18.0469H77.1094H86.9531H90.2344V21.3281H73.8281V18.0469ZM70.5469 24.6094H93.5156V74.0266C91.5108 74.5172 89.7783 75.8937 88.5938 77.7902C87.0959 75.3917 84.7153 73.8281 82.0312 73.8281C80.1839 73.8281 78.4826 74.5746 77.1094 75.8149V34.4531H75.4688C73.8002 34.4531 72.1563 34.586 70.5469 34.842V24.6094ZM49.2188 11.4844H52.5V14.7656H49.2188V11.4844ZM41.0156 18.0469H60.7031V21.3281H41.0156V18.0469ZM54.1406 24.6094V42.8843C51.4746 45.3813 49.2401 48.3525 47.5781 51.7043V24.6094H54.1406ZM11.4844 41.0156H34.4531V53.6796L21.3281 50.3984V92.5526C21.1263 92.8938 20.9212 93.2334 20.7523 93.5977C20.4077 93.5501 20.0566 93.5238 19.6924 93.5206C18.1535 91.4714 15.7221 90.2344 13.125 90.2344C12.5639 90.2344 12.0143 90.2918 11.4844 90.4001V41.0156ZM8.20312 98.4375C8.20312 95.7239 10.4114 93.5156 13.125 93.5156C14.8985 93.5156 16.5424 94.4754 17.4152 96.0209L17.9238 96.9216L19.6875 96.7969C20.1698 96.7969 20.6784 96.8904 21.2445 97.0807L22.8375 97.6156L23.3346 96.0094C24.4027 92.5559 27.5527 90.2344 31.1719 90.2344C34.1562 90.2344 36.9091 91.8602 38.3545 94.4787L39.3799 96.3359L40.9188 94.8757C42.7695 93.1235 45.821 93.1235 47.6716 94.8757L49.2105 96.3359L50.2359 94.4787C51.6846 91.8602 54.4376 90.2344 57.4219 90.2344C60.9837 90.2344 64.1173 92.5116 65.2198 95.9011L65.6808 97.317L67.136 96.9954C70.3795 96.2752 73.5607 97.6123 75.431 100.078H8.52141C8.33437 99.5499 8.20312 99.0035 8.20312 98.4375Z" fill="white"/>
<path d="M27.8906 44.2969H31.1719V47.5781H27.8906V44.2969Z" fill="white"/>
<path d="M14.7656 44.2969H18.0469V47.5781H14.7656V44.2969Z" fill="white"/>
<path d="M21.3281 44.2969H24.6094V47.5781H21.3281V44.2969Z" fill="white"/>
<path d="M14.7656 70.5469H18.0469V73.8281H14.7656V70.5469Z" fill="white"/>
<path d="M14.7656 63.9844H18.0469V67.2656H14.7656V63.9844Z" fill="white"/>
<path d="M14.7656 57.4219H18.0469V60.7031H14.7656V57.4219Z" fill="white"/>
<path d="M14.7656 77.1094H18.0469V80.3906H14.7656V77.1094Z" fill="white"/>
<path d="M14.7656 50.8594H18.0469V54.1406H14.7656V50.8594Z" fill="white"/>
<path d="M14.7656 83.6719H18.0469V86.9531H14.7656V83.6719Z" fill="white"/>
<path d="M86.9531 27.8906H90.2344V31.1719H86.9531V27.8906Z" fill="white"/>
<path d="M80.3906 27.8906H83.6719V31.1719H80.3906V27.8906Z" fill="white"/>
<path d="M73.8281 27.8906H77.1094V31.1719H73.8281V27.8906Z" fill="white"/>
<path d="M27.8906 80.3906H31.1719V83.6719H27.8906V80.3906Z" fill="white"/>
<path d="M27.8906 73.8281H31.1719V77.1094H27.8906V73.8281Z" fill="white"/>
<path d="M27.8906 67.2656H31.1719V70.5469H27.8906V67.2656Z" fill="white"/>
<path d="M27.8906 60.7031H31.1719V63.9844H27.8906V60.7031Z" fill="white"/>
<path d="M34.4531 60.7031H37.7344V63.9844H34.4531V60.7031Z" fill="white"/>
<path d="M34.4531 67.2656H37.7344V70.5469H34.4531V67.2656Z" fill="white"/>
<path d="M34.4531 80.3906H37.7344V83.6719H34.4531V80.3906Z" fill="white"/>
<path d="M34.4531 73.8281H37.7344V77.1094H34.4531V73.8281Z" fill="white"/>
<path d="M41.0156 80.3906H44.2969V83.6719H41.0156V80.3906Z" fill="white"/>
<path d="M41.0156 67.2656H44.2969V70.5469H41.0156V67.2656Z" fill="white"/>
<path d="M41.0156 60.7031H44.2969V63.9844H41.0156V60.7031Z" fill="white"/>
<path d="M41.0156 73.8281H44.2969V77.1094H41.0156V73.8281Z" fill="white"/>
<path d="M60.7031 80.3906H63.9844V83.6719H60.7031V80.3906Z" fill="white"/>
<path d="M54.1406 80.3906H57.4219V83.6719H54.1406V80.3906Z" fill="white"/>
<path d="M67.2656 80.3906H70.5469V83.6719H67.2656V80.3906Z" fill="white"/>
<path d="M60.7031 73.8281H63.9844V77.1094H60.7031V73.8281Z" fill="white"/>
<path d="M54.1406 73.8281H57.4219V77.1094H54.1406V73.8281Z" fill="white"/>
<path d="M67.2656 73.8281H70.5469V77.1094H67.2656V73.8281Z" fill="white"/>
<path d="M67.2656 67.2656H70.5469V70.5469H67.2656V67.2656Z" fill="white"/>
<path d="M54.1406 67.2656H57.4219V70.5469H54.1406V67.2656Z" fill="white"/>
<path d="M60.7031 67.2656H63.9844V70.5469H60.7031V67.2656Z" fill="white"/>
<path d="M54.1406 60.7031H57.4219V63.9844H54.1406V60.7031Z" fill="white"/>
<path d="M67.2656 60.7031H70.5469V63.9844H67.2656V60.7031Z" fill="white"/>
<path d="M60.7031 60.7031H63.9844V63.9844H60.7031V60.7031Z" fill="white"/>
<path d="M67.2656 54.1406H70.5469V57.4219H67.2656V54.1406Z" fill="white"/>
<path d="M60.7031 54.1406H63.9844V57.4219H60.7031V54.1406Z" fill="white"/>
<path d="M54.1406 54.1406H57.4219V57.4219H54.1406V54.1406Z" fill="white"/>
<path d="M60.7031 47.5781H63.9844V50.8594H60.7031V47.5781Z" fill="white"/>
<path d="M67.2656 47.5781H70.5469V50.8594H67.2656V47.5781Z" fill="white"/>
<path d="M80.3906 34.4531H83.6719V37.7344H80.3906V34.4531Z" fill="white"/>
<path d="M86.9531 34.4531H90.2344V37.7344H86.9531V34.4531Z" fill="white"/>
<path d="M86.9531 41.0156H90.2344V44.2969H86.9531V41.0156Z" fill="white"/>
<path d="M80.3906 41.0156H83.6719V44.2969H80.3906V41.0156Z" fill="white"/>
<path d="M80.3906 47.5781H83.6719V50.8594H80.3906V47.5781Z" fill="white"/>
<path d="M86.9531 47.5781H90.2344V50.8594H86.9531V47.5781Z" fill="white"/>
<path d="M86.9531 54.1406H90.2344V57.4219H86.9531V54.1406Z" fill="white"/>
<path d="M80.3906 54.1406H83.6719V57.4219H80.3906V54.1406Z" fill="white"/>
<path d="M80.3906 60.7031H83.6719V63.9844H80.3906V60.7031Z" fill="white"/>
<path d="M86.9531 60.7031H90.2344V63.9844H86.9531V60.7031Z" fill="white"/>
<path d="M86.9531 67.2656H90.2344V70.5469H86.9531V67.2656Z" fill="white"/>
<path d="M80.3906 67.2656H83.6719V70.5469H80.3906V67.2656Z" fill="white"/>
</svg>
