<svg width="21" height="21" viewBox="0 0 21 21" fill="none" xmlns="http://www.w3.org/2000/svg">
<path fill-rule="evenodd" clip-rule="evenodd" d="M21 10.5C21 16.299 16.299 21 10.5 21C4.70101 21 0 16.299 0 10.5C0 4.70101 4.70101 0 10.5 0C16.299 0 21 4.70101 21 10.5ZM11 9C10.4483 9 10 9.67249 10 10.5C10 11.3275 10.4483 12 11 12C11.5517 12 12 11.3275 12 10.5C12 9.67249 11.5517 9 11 9ZM5 10.5C5.94364 8.45132 8.27272 7 11 7C13.73 7 16.0564 8.45132 17 10.5C16.0564 12.5487 13.73 14 11 14C8.27272 14 5.94364 12.5487 5 10.5ZM8.27272 10.5C8.27272 11.788 9.49455 12.8333 11 12.8333C12.5055 12.8333 13.7273 11.788 13.7273 10.5C13.7273 9.212 12.5055 8.16666 11 8.16666C9.49455 8.16666 8.27272 9.21198 8.27272 10.5Z" fill="#151963"/>
</svg>
