<svg width="328" height="40" viewBox="0 0 328 40" fill="none" xmlns="http://www.w3.org/2000/svg">
<path fill-rule="evenodd" clip-rule="evenodd" d="M4.67969 2.30159C4.67969 1.90477 4.71944 1.62699 4.71944 1.34921C4.71944 1.11112 4.71944 0.952385 4.67969 0.833338C4.67969 0.674608 4.67969 0.515877 4.67969 0.39683C4.71944 0.39683 4.83871 0.39683 4.95798 0.39683C5.75308 0.357147 6.34941 0.357147 6.50844 0.357147C11.2791 0.357147 16.01 0.357147 20.7806 0.357147C20.8999 0.357147 20.9794 0.357147 21.0987 0.357147C21.1384 0.436512 21.1782 0.515877 21.2179 0.55556C22.4106 3.09524 23.643 5.67461 24.8754 8.21429C25.5115 9.60318 26.1874 10.9921 26.8235 12.381C26.9427 12.6191 27.1017 12.8968 27.221 13.1349C27.2608 13.1746 27.3005 13.2143 27.3005 13.254C27.4198 13.2937 27.4595 13.2143 27.539 13.1746C28.2149 12.8175 28.851 12.4206 29.4871 12.0635C30.7592 11.3095 31.9917 10.5556 33.2241 9.80159C35.9274 8.21429 38.9488 6.34921 43.3219 3.80953C43.7593 3.53175 44.1966 3.29365 44.6736 3.01588C45.3495 2.57937 46.0253 2.18254 46.6614 1.78572C47.4963 1.30953 48.3311 0.833338 49.166 0.357147C50.7164 0.39683 52.1079 0.39683 53.221 0.39683C53.9366 0.39683 55.4076 0.39683 57.2363 0.357147C57.7532 0.357147 58.9458 0.357147 60.8143 0.357147C60.9733 0.357147 61.1324 0.357147 61.2516 0.357147C61.2914 0.476195 61.2119 0.476195 61.1721 0.515877C60.5758 0.87302 59.9795 1.23016 59.4229 1.58731C58.7868 1.94445 58.1507 2.34127 57.5146 2.69842C56.4412 3.37302 55.3281 4.04762 54.2547 4.68254C52.903 5.51588 51.5911 6.30953 50.2791 7.10318C49.166 7.77778 48.0528 8.45238 46.9794 9.12699C45.906 9.76191 44.8326 10.3968 43.799 11.0714C42.6461 11.7857 41.4534 12.4603 40.3005 13.1746C39.6247 13.5714 38.9488 14.0079 38.273 14.4444C36.0069 15.7937 33.7409 17.1429 31.5146 18.4921C30.0436 19.3651 28.5727 20.2778 27.1017 21.1905C25.9886 21.8651 24.8754 22.5794 23.7623 23.254C23.4045 23.4524 23.0467 23.6111 22.6889 23.7698C21.8143 24.0476 20.8204 23.8095 20.2241 23.0952C20.1048 22.9762 19.9855 22.8175 19.906 22.6984C19.6277 22.2619 19.3494 21.8651 19.1507 21.4286C18.5543 20.2778 17.9977 19.0873 17.4412 17.9365C16.8051 16.6667 16.2485 15.3175 15.6522 14.0079C15.4136 13.4921 15.1751 12.9762 14.8968 12.4603C14.6185 11.8254 14.3403 11.1905 14.0222 10.5556C13.4259 9.40477 12.9488 8.21429 12.3922 7.0635C11.9947 6.23016 11.5971 5.43651 11.1996 4.60318C11.0406 4.3254 10.8815 4.04762 10.7225 3.76985C10.5635 3.49207 10.3647 3.29365 10.0864 3.09524C9.49009 2.69842 8.85401 2.5 8.13841 2.46032C7.58183 2.46032 7.02526 2.42064 6.50844 2.38096C6.19039 2.38096 5.71333 2.38096 5.03749 2.30159C4.87846 2.30159 4.7592 2.30159 4.67969 2.30159Z" fill="#151963"/>
<path fill-rule="evenodd" clip-rule="evenodd" d="M0.26709 39.3254C0.346601 39.2857 0.386356 39.2461 0.465867 39.2064C2.73193 37.7778 5.03774 36.3889 7.34355 35C9.5301 33.6508 11.7166 32.3016 13.9032 30.9524C16.8451 29.1667 19.787 27.3413 22.6891 25.5556C23.5638 25 24.4384 24.4842 25.313 23.9286C27.8971 22.3413 30.4812 20.7937 33.0653 19.2064C34.258 18.4524 35.4506 17.7381 36.6433 17.0238C36.9216 16.8254 37.2396 16.6667 37.5179 16.5476C37.9155 16.3492 38.313 16.1111 38.7503 15.9921C39.0684 15.9127 39.3467 15.8334 39.6647 15.873C39.9827 15.873 40.3008 15.9524 40.5393 16.1508C40.8971 16.4286 41.2152 16.7461 41.4537 17.1429C41.8512 17.6588 42.1693 18.254 42.4476 18.8492C42.9246 19.8413 43.4017 20.8334 43.839 21.8254C44.5149 23.2143 45.1509 24.6032 45.8268 25.9921C46.4629 27.3413 47.099 28.6508 47.6953 30C48.1724 30.9921 48.6494 31.9842 49.1265 32.9762C49.365 33.4921 49.6433 34.0476 49.8818 34.5635C50.1204 35.0397 50.3987 35.4762 50.7565 35.873C50.836 35.9921 50.9552 36.1111 51.1143 36.2302C51.5118 36.5873 52.0286 36.8651 52.5455 36.9842C52.784 37.0635 53.0225 37.0635 53.4598 37.1032C54.0164 37.1826 54.3742 37.1826 55.2488 37.1826C55.5271 37.2222 55.9644 37.2222 56.5608 37.2222H56.6005C56.6005 37.2222 56.6005 37.8175 56.6005 39.3651C56.0837 39.4048 55.5669 39.4048 55.05 39.4048C54.732 39.4048 54.2152 39.4048 53.6189 39.4048C52.9828 39.4048 52.5455 39.4048 52.3864 39.4048C51.313 39.4048 50.3192 39.4048 49.2855 39.4048C46.6219 39.3651 44.2763 39.3651 40.4201 39.3651C40.3405 39.3651 40.261 39.3651 40.1815 39.3651C40.1418 39.2857 40.102 39.2461 40.102 39.1667C38.7503 36.3889 37.4384 33.5715 36.1265 30.7937C35.5699 29.6429 35.0531 28.5318 34.5363 27.4207C34.3772 27.1032 34.2182 26.8651 34.0592 26.5873C34.0194 26.4683 33.9399 26.4683 33.8604 26.508C33.8207 26.508 33.7809 26.5476 33.7411 26.5476C31.7136 27.7778 29.6861 28.9683 27.6586 30.1588C26.1081 31.0715 24.5576 32.0238 22.9674 32.9365C21.2977 33.9286 19.628 34.9207 17.998 35.9127C16.1693 36.9842 14.3803 38.0556 12.5913 39.1667C12.5118 39.2064 12.4322 39.2857 12.3527 39.2857C12.313 39.2857 12.313 39.2857 12.2335 39.2857C12.2335 39.2857 12.1142 39.3254 12.0744 39.3254C12.0347 39.3254 12.0347 39.3254 12.0347 39.3254C11.7962 39.3254 6.90624 39.3254 0.26709 39.3254Z" fill="#303688"/>
<path fill-rule="evenodd" clip-rule="evenodd" d="M82.362 12.5794H84.5485L82.7198 0.714294H80.0959L73.6953 12.5794H76.1204L77.5118 9.96033H81.9644L82.362 12.5794ZM78.5455 7.9762L81.0501 3.21429L81.6862 7.9762H78.5455Z" fill="#151963"/>
<path fill-rule="evenodd" clip-rule="evenodd" d="M86.3374 12.5794H88.6035L90.5912 2.69842H96.6341L97.0316 0.714294H88.683L86.3374 12.5794Z" fill="#151963"/>
<path fill-rule="evenodd" clip-rule="evenodd" d="M105.102 12.5794L105.5 10.5952H98.94L99.5761 7.38096H105.46L105.857 5.39683H100.013L100.57 2.69842H106.613L107.01 0.714294H98.6219L96.2764 12.5794H105.102Z" fill="#151963"/>
<path fill-rule="evenodd" clip-rule="evenodd" d="M113.848 12.5794H116.154L118.539 0.714294H116.194L115.279 5.27779H110.906L111.821 0.714294H109.515L107.129 12.5794H109.435L110.509 7.3016H114.882L113.848 12.5794Z" fill="#151963"/>
<path fill-rule="evenodd" clip-rule="evenodd" d="M125.696 2.69842H128.956L129.353 0.714294H120.448L120.09 2.69842H123.39L121.402 12.5794H123.748L125.696 2.69842Z" fill="#151963"/>
<path fill-rule="evenodd" clip-rule="evenodd" d="M135.833 10.1587C135.356 10.5556 134.799 10.754 134.203 10.754C133.527 10.754 133.01 10.5159 132.573 10C132.135 9.48412 131.937 8.73015 131.937 7.77777C131.937 6.90476 132.096 6.03174 132.453 5.15873C132.772 4.28571 133.209 3.65079 133.765 3.21428C134.322 2.81746 134.918 2.61904 135.554 2.61904C136.151 2.61904 136.588 2.77777 136.946 3.05555C137.304 3.37301 137.542 3.88888 137.661 4.56349L139.888 4.36508C139.768 3.1746 139.291 2.22222 138.576 1.54762C137.82 0.833329 136.827 0.515869 135.594 0.515869C134.521 0.515869 133.487 0.793647 132.573 1.38888C131.658 1.98412 130.943 2.85714 130.386 3.96825C129.869 5.07936 129.631 6.30952 129.631 7.69841C129.631 9.32539 130.028 10.6349 130.784 11.5079C131.579 12.3809 132.652 12.8175 134.044 12.8175C135.236 12.8175 136.31 12.4603 137.224 11.746C138.139 11.0317 138.814 10.0397 139.291 8.69047L136.946 8.33333C136.707 9.12698 136.35 9.72222 135.833 10.1587Z" fill="#151963"/>
<path fill-rule="evenodd" clip-rule="evenodd" d="M147.362 2.69842H150.622L151.02 0.714294H142.114L141.717 2.69842H145.056L143.068 12.5794H145.414L147.362 2.69842Z" fill="#151963"/>
<path fill-rule="evenodd" clip-rule="evenodd" d="M155.75 12.5794C156.943 12.5794 157.857 12.4603 158.533 12.1825C159.209 11.9048 159.765 11.4286 160.123 10.7937C160.521 10.1587 160.719 9.48414 160.719 8.76985C160.719 8.21429 160.56 7.7381 160.242 7.3016C159.924 6.86509 159.447 6.58731 158.851 6.3889C159.606 6.1508 160.163 5.79366 160.481 5.31747C160.839 4.84128 160.998 4.28572 160.998 3.61112C160.998 3.09525 160.918 2.65874 160.719 2.26191C160.521 1.86509 160.242 1.54763 159.845 1.26985C159.447 1.03175 158.97 0.873025 158.414 0.79366C158.096 0.753977 157.499 0.714294 156.664 0.714294H152.808L150.423 12.5794H155.75ZM154.716 2.69842H156.545C157.181 2.69842 157.579 2.7381 157.778 2.77779C158.056 2.81747 158.294 2.9762 158.453 3.13493C158.652 3.33334 158.692 3.57144 158.692 3.8889C158.692 4.20636 158.612 4.48414 158.453 4.76191C158.255 5.00001 158.016 5.19842 157.658 5.31747C157.301 5.43652 156.744 5.51588 155.949 5.51588H154.16L154.716 2.69842ZM153.723 7.57937H156.505C157.181 7.57937 157.619 7.69842 157.937 7.9762C158.175 8.21429 158.334 8.53175 158.334 8.92858C158.334 9.28572 158.255 9.5635 158.056 9.88096C157.857 10.1587 157.579 10.3572 157.261 10.5159C156.943 10.6349 156.307 10.6746 155.392 10.6746H153.126L153.723 7.57937Z" fill="#151963"/>
<path fill-rule="evenodd" clip-rule="evenodd" d="M163.304 10.1984C163.623 10.9524 164.139 11.5476 164.855 12.0635C165.571 12.5397 166.445 12.8175 167.519 12.8175C168.711 12.8175 169.785 12.5 170.739 11.8651C171.733 11.2302 172.488 10.3175 173.045 9.12698C173.601 7.97619 173.879 6.74603 173.879 5.51587C173.879 4.00793 173.442 2.77777 172.568 1.86508C171.733 0.952377 170.58 0.515869 169.188 0.515869C168.155 0.515869 167.201 0.714282 166.405 1.15079C165.61 1.62698 164.934 2.22222 164.378 2.97619C163.861 3.76984 163.464 4.68254 163.185 5.71428C162.986 6.50793 162.867 7.22222 162.867 7.9365C162.867 8.69047 163.026 9.44444 163.304 10.1984ZM166.246 4.20635C166.962 3.09523 167.876 2.53968 169.029 2.53968C169.745 2.53968 170.341 2.81746 170.858 3.33333C171.335 3.88888 171.574 4.60317 171.574 5.55555C171.574 6.38888 171.375 7.2619 170.977 8.13492C170.619 9.00793 170.142 9.68254 169.546 10.119C168.99 10.5556 168.393 10.754 167.757 10.754C167.002 10.754 166.366 10.4762 165.889 9.92063C165.412 9.40476 165.173 8.69047 165.173 7.89682C165.173 6.54762 165.531 5.31746 166.246 4.20635Z" fill="#151963"/>
<path fill-rule="evenodd" clip-rule="evenodd" d="M187.435 12.5794H189.741L192.087 0.714294H189.781L188.867 5.27779H184.494L185.408 0.714294H183.062L180.717 12.5794H183.023L184.096 7.3016H188.469L187.435 12.5794Z" fill="#151963"/>
<path fill-rule="evenodd" clip-rule="evenodd" d="M201.23 12.5794L201.628 10.5952H195.068L195.704 7.38096H201.588L201.986 5.39683H196.142L196.698 2.69842H202.741L203.139 0.714294H194.79L192.405 12.5794H201.23Z" fill="#151963"/>
<path fill-rule="evenodd" clip-rule="evenodd" d="M203.497 10.5952H202.463L201.43 15.873H203.298L203.934 12.5794H211.249L210.613 15.873H212.482L213.515 10.5952H212.521L214.509 0.714294H206.598C205.843 5.00001 204.809 8.33334 203.497 10.5952ZM210.216 10.5952H205.922C206.916 8.53175 207.791 5.91271 208.466 2.69842H211.806L210.216 10.5952Z" fill="#151963"/>
<path fill-rule="evenodd" clip-rule="evenodd" d="M220.274 12.5794C221.426 12.5794 222.381 12.4603 223.056 12.1825C223.732 11.9048 224.249 11.4286 224.647 10.7937C225.044 10.1587 225.243 9.48414 225.243 8.76985C225.243 8.21429 225.084 7.7381 224.726 7.3016C224.408 6.86509 223.971 6.58731 223.374 6.3889C224.09 6.1508 224.647 5.79366 225.004 5.31747C225.362 4.84128 225.521 4.28572 225.521 3.61112C225.521 3.09525 225.442 2.65874 225.243 2.26191C225.044 1.86509 224.726 1.54763 224.329 1.26985C223.971 1.03175 223.494 0.873025 222.937 0.79366C222.579 0.753977 222.023 0.714294 221.188 0.714294H217.292L214.946 12.5794H220.274ZM219.24 2.69842H221.029C221.705 2.69842 222.102 2.7381 222.261 2.77779C222.579 2.81747 222.818 2.9762 222.977 3.13493C223.136 3.33334 223.215 3.57144 223.215 3.8889C223.215 4.20636 223.136 4.48414 222.977 4.76191C222.778 5.00001 222.54 5.19842 222.182 5.31747C221.824 5.43652 221.267 5.51588 220.433 5.51588H218.683L219.24 2.69842ZM218.246 7.57937H221.029C221.705 7.57937 222.142 7.69842 222.42 7.9762C222.699 8.21429 222.858 8.53175 222.858 8.92858C222.858 9.28572 222.738 9.5635 222.579 9.88096C222.341 10.1587 222.102 10.3572 221.784 10.5159C221.466 10.6349 220.83 10.6746 219.916 10.6746H217.65L218.246 7.57937Z" fill="#151963"/>
<path fill-rule="evenodd" clip-rule="evenodd" d="M226.674 12.5794H228.821L234.983 5.15874L233.512 12.5794H235.699L238.005 0.714294H235.858L229.735 8.09525L231.206 0.714294H229.06L226.674 12.5794Z" fill="#151963"/>
<path fill-rule="evenodd" clip-rule="evenodd" d="M244.763 5.754C244.683 5.754 244.643 5.754 244.604 5.754C244.246 5.754 244.047 5.63495 243.888 5.39685C243.769 5.19844 243.57 4.56352 243.332 3.53177C243.173 2.73812 242.974 2.18257 242.815 1.78574C242.616 1.4286 242.377 1.15082 242.099 0.952409C241.821 0.753996 241.384 0.634949 240.827 0.634949C240.588 0.634949 240.35 0.634949 240.111 0.714314L239.754 2.50003C240.032 2.46035 240.191 2.46035 240.35 2.46035C240.747 2.46035 240.986 2.53971 241.105 2.65876C241.225 2.81749 241.344 3.21431 241.423 3.80955C241.582 4.68257 241.741 5.31749 241.9 5.71431C242.099 6.11114 242.338 6.38892 242.656 6.50796C241.781 6.70638 241.026 7.30161 240.35 8.29368L237.448 12.5794H240.231L242.536 9.12701L242.656 8.96828L243.093 8.33336C243.292 8.05558 243.491 7.81749 243.729 7.65876C243.928 7.50003 244.166 7.42066 244.405 7.42066L243.411 12.5794H245.677L246.711 7.42066C247.029 7.42066 247.267 7.53971 247.506 7.77781C247.744 7.97622 247.943 8.45241 248.142 9.20638L249.017 12.5794H251.362L250.329 8.6905C250.01 7.50003 249.533 6.78574 248.858 6.50796C249.613 6.30955 250.289 5.55558 250.925 4.28574C251.322 3.49209 251.601 2.97622 251.799 2.77781C251.998 2.57939 252.316 2.46035 252.793 2.46035C252.913 2.46035 253.111 2.46035 253.35 2.50003L253.747 0.714314C253.429 0.674631 253.151 0.634949 252.873 0.634949C252.237 0.634949 251.68 0.753996 251.243 0.952409C250.806 1.15082 250.488 1.38892 250.249 1.70638C250.01 1.98415 249.692 2.50003 249.295 3.17463C248.659 4.32542 248.261 5.03971 247.983 5.31749C247.744 5.59527 247.426 5.754 247.069 5.754L248.062 0.714314H245.757L244.763 5.754Z" fill="#151963"/>
<path fill-rule="evenodd" clip-rule="evenodd" d="M253.31 12.5794H255.457L261.579 5.15874L260.108 12.5794H262.295L264.64 0.714294H262.454L256.371 8.09525L257.842 0.714294H255.656L253.31 12.5794Z" fill="#151963"/>
<path fill-rule="evenodd" clip-rule="evenodd" d="M275.692 2.7381L273.705 12.5794H275.812L277.879 0.714294H274.54L270.962 8.8889L270.644 0.714294H267.304L264.958 12.5794H267.026L268.855 2.65874L269.252 12.5794H271.478L275.692 2.7381Z" fill="#151963"/>
<path fill-rule="evenodd" clip-rule="evenodd" d="M279.589 10.1984C279.867 10.9524 280.384 11.5476 281.1 12.0635C281.815 12.5397 282.69 12.8175 283.763 12.8175C284.956 12.8175 286.029 12.5 287.023 11.8651C287.977 11.2302 288.733 10.3175 289.289 9.12698C289.846 7.97619 290.124 6.74603 290.124 5.51587C290.124 4.00793 289.687 2.77777 288.852 1.86508C287.977 0.952377 286.864 0.515869 285.473 0.515869C284.399 0.515869 283.485 0.714282 282.65 1.15079C281.855 1.62698 281.179 2.22222 280.623 2.97619C280.106 3.76984 279.708 4.68254 279.43 5.71428C279.231 6.50793 279.112 7.22222 279.112 7.9365C279.112 8.69047 279.271 9.44444 279.589 10.1984ZM282.491 4.20635C283.207 3.09523 284.121 2.53968 285.274 2.53968C286.029 2.53968 286.626 2.81746 287.103 3.33333C287.58 3.88888 287.818 4.60317 287.818 5.55555C287.818 6.38888 287.619 7.2619 287.262 8.13492C286.864 9.00793 286.387 9.68254 285.791 10.119C285.234 10.5556 284.638 10.754 284.002 10.754C283.246 10.754 282.61 10.4762 282.133 9.92063C281.656 9.40476 281.418 8.69047 281.418 7.89682C281.418 6.54762 281.815 5.31746 282.491 4.20635Z" fill="#151963"/>
<path fill-rule="evenodd" clip-rule="evenodd" d="M298.035 10.1587C297.558 10.5556 297.002 10.754 296.405 10.754C295.769 10.754 295.213 10.5159 294.815 10C294.378 9.48412 294.139 8.73015 294.139 7.77777C294.139 6.90476 294.338 6.03174 294.656 5.15873C294.974 4.28571 295.411 3.65079 295.968 3.21428C296.525 2.81746 297.121 2.61904 297.757 2.61904C298.353 2.61904 298.83 2.77777 299.188 3.05555C299.506 3.37301 299.745 3.88888 299.864 4.56349L302.09 4.36508C301.971 3.1746 301.534 2.22222 300.778 1.54762C300.023 0.833329 299.029 0.515869 297.797 0.515869C296.723 0.515869 295.73 0.793647 294.815 1.38888C293.861 1.98412 293.145 2.85714 292.629 3.96825C292.112 5.07936 291.833 6.30952 291.833 7.69841C291.833 9.32539 292.231 10.6349 293.026 11.5079C293.782 12.3809 294.855 12.8175 296.246 12.8175C297.479 12.8175 298.552 12.4603 299.467 11.746C300.381 11.0317 301.057 10.0397 301.494 8.69047L299.188 8.33333C298.91 9.12698 298.552 9.72222 298.035 10.1587Z" fill="#151963"/>
<path fill-rule="evenodd" clip-rule="evenodd" d="M309.604 2.69842H312.864L313.221 0.714294H304.316L303.958 2.69842H307.258L305.31 12.5794H307.616L309.604 2.69842Z" fill="#151963"/>
<path fill-rule="evenodd" clip-rule="evenodd" d="M312.665 12.5794H314.812L320.974 5.15874L319.503 12.5794H321.65L323.995 0.714294H321.848L315.726 8.09525L317.197 0.714294H315.05L312.665 12.5794Z" fill="#151963"/>
<path fill-rule="evenodd" clip-rule="evenodd" d="M79.3802 39.0873L86.0989 32.7381L92.7778 39.0873H100.133L89.7166 29.2857L99.1784 20.2778H92.0224L86.0989 25.873L80.1356 20.2778H73.0591L82.5209 29.2857L72.105 39.0873H79.3802Z" fill="#303688"/>
<path fill-rule="evenodd" clip-rule="evenodd" d="M119.653 20.2778H113.213L101.485 39.0873H107.925L110.47 34.8016H122.555L125.179 39.0873H131.739L119.653 20.2778ZM112.338 31.627L116.393 24.6825L120.567 31.627H112.338Z" fill="#303688"/>
<path fill-rule="evenodd" clip-rule="evenodd" d="M134.68 39.0873V20.2778H144.102L149.747 33.1349L155.313 20.2778H164.735V39.0873H158.891V24.2857L152.729 39.0873H146.686L140.524 24.2857V39.0873H134.68Z" fill="#303688"/>
<path fill-rule="evenodd" clip-rule="evenodd" d="M171.772 36.8651C174.237 38.5714 177.616 39.4445 181.791 39.4445C185.965 39.4445 189.304 38.5714 191.769 36.8651C194.274 35.1191 195.506 32.7778 195.506 29.7222C195.506 26.627 194.234 24.246 191.729 22.5C189.265 20.7937 185.885 19.9603 181.751 19.9603C179.405 19.9603 177.417 20.1587 175.628 20.6746C174.317 21.0318 173.084 21.627 171.971 22.381C170.858 23.1349 169.983 24.0079 169.347 24.9603C168.472 26.2699 168.035 27.8968 168.035 29.8016C168.035 32.8175 169.268 35.1587 171.772 36.8651ZM176.106 24.8016C177.537 23.7302 179.445 23.2143 181.791 23.2143C184.176 23.2143 186.044 23.7302 187.476 24.8016C188.907 25.873 189.622 27.4603 189.622 29.6429C189.622 31.8254 188.867 33.4524 187.396 34.5635C185.925 35.6349 184.096 36.1905 181.791 36.1905C179.485 36.1905 177.656 35.6349 176.145 34.5238C174.674 33.4127 173.919 31.8254 173.919 29.6825C173.919 27.5 174.635 25.873 176.106 24.8016Z" fill="#303688"/>
<path fill-rule="evenodd" clip-rule="evenodd" d="M207.313 39.0873C209.659 39.0873 211.527 38.8889 212.879 38.4524C214.231 38.0159 215.344 37.381 216.179 36.508C217.053 35.635 217.451 34.6429 217.451 33.6111C217.451 32.5 217.053 31.5477 216.258 30.754C215.423 29.9207 214.111 29.2461 212.322 28.7302C213.396 28.2143 214.151 27.6588 214.628 27.0635C215.105 26.4683 215.344 25.8334 215.344 25.1191C215.344 24.008 214.827 23.0556 213.793 22.2223C212.72 21.4286 211.328 20.873 209.579 20.5556C208.307 20.3175 206.359 20.2381 203.656 20.2381H199.044V39.0873H207.313ZM206.081 23.6508C207.393 23.6508 208.347 23.8492 209.023 24.1667C209.619 24.5238 209.937 25 209.937 25.5953C209.937 26.2302 209.619 26.7064 208.943 27.1032C208.267 27.4603 207.273 27.6588 205.882 27.6588H204.61V23.6508H206.081ZM205.802 30.8334C207.989 30.8334 209.579 31.0715 210.573 31.5477C211.487 32.0238 212.004 32.6588 212.004 33.4921C212.004 34.2064 211.567 34.7223 210.772 35.1191C209.937 35.5159 208.347 35.6746 206.041 35.6746H204.61V30.8334H205.802Z" fill="#303688"/>
<path fill-rule="evenodd" clip-rule="evenodd" d="M227.47 39.0873V30.873H237.846V39.0873H243.213V20.2778H237.846V27.6984H227.47V20.2778H222.103V39.0873H227.47Z" fill="#303688"/>
<path fill-rule="evenodd" clip-rule="evenodd" d="M248.023 39.0873H253.867L265.714 26.7857V39.0873H271.24V20.2778H265.356L253.509 32.8175V20.2778H248.023V39.0873Z" fill="#303688"/>
<path fill-rule="evenodd" clip-rule="evenodd" d="M276.687 39.0873H282.491V30.6746L291.794 39.0873H298.671L287.063 28.6508L297.638 20.2381H290.68L282.491 26.7461V20.2381H276.687V39.0873Z" fill="#303688"/>
<path fill-rule="evenodd" clip-rule="evenodd" d="M301.256 39.0873H307.139L318.987 26.7857V39.0873H324.513V20.2778H318.629L306.782 32.8175V20.2778H301.256V39.0873Z" fill="#303688"/>
</svg>
