<svg width="19" height="25" viewBox="0 0 19 25" fill="none" xmlns="http://www.w3.org/2000/svg">
<path fill-rule="evenodd" clip-rule="evenodd" d="M9.70469 12.0467H9.36009C7.01206 12.0467 4.99258 9.17774 7.17233 6.81101C7.94166 5.98151 9.59249 5.65428 10.8346 6.20221C14.1363 7.66334 12.7018 12.0467 9.70469 12.0467ZM0 8.37869L0.192331 10.7682C0.384661 11.6738 0.576992 12.2598 0.929598 13.0969C1.08987 13.4774 1.21809 13.8351 1.40241 14.2004L2.76475 16.7041L6.6274 22.1834L8.81516 24.7403C9.0716 25.0295 9.26393 24.9991 9.63256 24.9991C10.0573 24.9991 10.1935 24.6718 10.4019 24.4359L12.2931 22.2442C13.0625 21.3615 15.0899 18.5001 15.691 17.5488L16.7007 15.8594C17.3979 14.7864 18.4157 12.4653 18.7122 11.1335C18.8805 10.3573 18.9526 9.94636 18.9927 9.21579C19.0808 7.45787 18.3676 5.25856 17.2697 3.82787C16.4683 2.77768 15.5788 1.94818 14.3927 1.27849C12.4294 0.152201 11.2433 0 8.95139 0C6.67548 0 4.3034 1.16434 2.76475 2.62547C1.17803 4.13227 0.544937 5.50969 0.120207 7.51875L0 8.37869Z" fill="#151963"/>
</svg>
