<svg width="21" height="21" viewBox="0 0 21 21" fill="none" xmlns="http://www.w3.org/2000/svg">
<path fill-rule="evenodd" clip-rule="evenodd" d="M10.5 21C16.299 21 21 16.299 21 10.5C21 4.70101 16.299 0 10.5 0C4.70101 0 0 4.70101 0 10.5C0 16.299 4.70101 21 10.5 21ZM10.4485 10.8187H10.5754C11.6796 10.8187 12.2081 9.06534 10.9917 8.48088C10.5341 8.26171 9.92587 8.39261 9.64244 8.72441C8.83937 9.6711 9.58339 10.8187 10.4485 10.8187ZM7.07086 10.3073L7 9.35147L7.04429 9.0075C7.20077 8.20388 7.43401 7.65291 8.01859 7.05019C8.58546 6.46574 9.45939 6 10.2979 6C11.1423 6 11.5792 6.06088 12.3026 6.5114C12.7396 6.77927 13.0673 7.11107 13.3625 7.53115C13.767 8.10342 14.0298 8.98315 13.9973 9.68632C13.9825 9.97854 13.956 10.1429 13.894 10.4534C13.7847 10.9861 13.4098 11.9145 13.1529 12.3438L12.7809 13.0195C12.5595 13.4 11.8125 14.5446 11.5291 14.8977L10.8323 15.7744C10.8163 15.7941 10.8014 15.8153 10.7865 15.8366C10.73 15.9176 10.6727 15.9996 10.5488 15.9996C10.5366 15.9996 10.5248 15.9997 10.5135 15.9998C10.4 16.0008 10.3336 16.0014 10.2477 15.8961L9.44167 14.8733L8.01859 12.6816L7.51668 11.6802C7.46922 11.578 7.43186 11.4774 7.39351 11.3741C7.37698 11.3296 7.36027 11.2846 7.34248 11.2388C7.21258 10.9039 7.14172 10.6695 7.07086 10.3073Z" fill="#151962"/>
</svg>
