<svg width="21" height="21" viewBox="0 0 21 21" fill="none" xmlns="http://www.w3.org/2000/svg">
<path fill-rule="evenodd" clip-rule="evenodd" d="M10.5 21C16.299 21 21 16.299 21 10.5C21 4.70101 16.299 0 10.5 0C4.70101 0 0 4.70101 0 10.5C0 16.299 4.70101 21 10.5 21ZM11.0613 6.66936C11.7795 6.66936 12.3638 6.08512 12.3638 5.36688C12.3638 4.64878 11.7795 4.06453 11.0613 4.06453C10.3432 4.06453 9.75909 4.64878 9.75909 5.36688C9.75896 6.08512 10.3432 6.66936 11.0613 6.66936ZM13.5933 10.5462L12.3722 9.19916C12.2962 9.1153 12.2263 8.94251 12.2228 8.82923L12.1778 7.43157V7.39107C12.1778 7.17571 12.0026 7.00045 11.7872 7.00045H10.5919H10.1169C9.92444 7.00045 9.70972 7.13678 9.62782 7.31087L8.0187 10.7288C7.97417 10.8236 7.96974 10.9295 8.0062 11.0273C8.04266 11.1249 8.11557 11.202 8.21128 11.2442L8.44839 11.3488C8.49891 11.371 8.55282 11.3824 8.60868 11.3824C8.76193 11.3824 8.90464 11.2953 8.97248 11.1605L9.72626 9.66088V11.1682C9.72482 11.1722 9.72309 11.176 9.72135 11.1799C9.71931 11.1844 9.71726 11.1889 9.71571 11.1937L8.44188 15.183C8.38888 15.3492 8.40503 15.5241 8.48745 15.6754C8.56987 15.8267 8.70789 15.935 8.87638 15.9804L8.96154 16.0035C9.01727 16.0186 9.07508 16.0263 9.13316 16.0263C9.42626 16.0263 9.69253 15.8334 9.78082 15.5571L10.9711 11.8295L11.3932 12.8635C11.4962 13.1157 11.6074 13.5574 11.636 13.8282L11.838 15.732C11.8704 16.0368 12.1114 16.258 12.4112 16.258C12.4603 16.258 12.5101 16.2521 12.5592 16.2402L12.645 16.2194C12.9867 16.1367 13.2281 15.7856 13.1832 15.4371L12.8841 13.1157C12.8461 12.8208 12.7189 12.3589 12.6005 12.0861L12.1966 11.1559C12.1934 11.1486 12.1895 11.1417 12.1855 11.1348C12.1829 11.1303 12.1803 11.1258 12.178 11.1212V10.4908L12.9058 11.2507C12.9782 11.3264 13.0751 11.368 13.1785 11.368C13.283 11.368 13.3807 11.3256 13.4534 11.2485L13.588 11.1055C13.732 10.9525 13.7345 10.7018 13.5933 10.5462Z" fill="#151962"/>
</svg>
