<svg width="18" height="18" viewBox="0 0 18 18" fill="none" xmlns="http://www.w3.org/2000/svg">
<g clip-path="url(#clip0)">
<path d="M17 7.7299H16V0.513546C16 0.230069 15.7756 0 15.5 0H2.5C2.224 0 2 0.230069 2 0.513546V7.72908H1C0.4476 7.72908 0 8.1888 0 8.75617V16.9729C0 17.5403 0.4476 18 1 18H17C17.5524 18 18 17.5403 18 16.9729V8.75617C18 8.1888 17.5524 7.7299 17 7.7299ZM13.0124 15.4068H4.9872V13.3526H13.0124V15.4068ZM15 7.7299H14C13.4476 7.7299 13 8.18962 13 8.75699V10.8112H5V8.75699C5 8.18962 4.5524 7.7299 4 7.7299H3V1.02709H15V7.7299ZM13 3.36845H5C4.724 3.36845 4.5 3.13838 4.5 2.85491C4.5 2.57143 4.724 2.34136 5 2.34136H13C13.2756 2.34136 13.5 2.57143 13.5 2.85491C13.5 3.13838 13.2756 3.36845 13 3.36845ZM13 5.42264H5C4.724 5.42264 4.5 5.19257 4.5 4.90909C4.5 4.62561 4.724 4.39554 5 4.39554H13C13.2756 4.39554 13.5 4.62561 13.5 4.90909C13.5 5.19257 13.2756 5.42264 13 5.42264ZM13 7.47682H5C4.724 7.47682 4.5 7.24675 4.5 6.96328C4.5 6.6798 4.724 6.44973 5 6.44973H13C13.2756 6.44973 13.5 6.6798 13.5 6.96328C13.5 7.24675 13.2756 7.47682 13 7.47682Z" fill="#151963"/>
</g>
<defs>
<clipPath id="clip0">
<rect width="18" height="18" fill="white"/>
</clipPath>
</defs>
</svg>
