<svg width="24" height="24" viewBox="0 0 24 24" fill="none" xmlns="http://www.w3.org/2000/svg">
<circle cx="12" cy="12" r="11.5" fill="white" stroke="#323888"/>
<path d="M12.5524 12L16.8856 16.3331C17.0381 16.4857 17.0381 16.733 16.8856 16.8856C16.733 17.0381 16.4857 17.0381 16.3331 16.8856L12 12.5524L7.66686 16.8856C7.5143 17.0381 7.26696 17.0381 7.11442 16.8856C6.96188 16.733 6.96186 16.4857 7.11442 16.3331L11.4476 12L7.11442 7.66684C6.96186 7.51428 6.96186 7.26693 7.11442 7.11439C7.19069 7.03813 7.29067 7 7.39065 7C7.49063 7 7.59059 7.03813 7.66688 7.11439L12 11.4475L16.3331 7.11439C16.4094 7.03813 16.5094 7 16.6094 7C16.7093 7 16.8093 7.03813 16.8856 7.11439C17.0381 7.26695 17.0381 7.5143 16.8856 7.66684L12.5524 12Z" fill="#323888"/>
</svg>
