<svg width="41" height="41" viewBox="0 0 41 41" fill="none" xmlns="http://www.w3.org/2000/svg">
<path d="M20.3678 39.7355C31.0643 39.7355 39.7355 31.0643 39.7355 20.3678C39.7355 9.67124 31.0643 1 20.3678 1C9.67124 1 1 9.67124 1 20.3678C1 31.0643 9.67124 39.7355 20.3678 39.7355Z" stroke="white" stroke-width="1.49987"/>
<path fill-rule="evenodd" clip-rule="evenodd" d="M15.1461 7.93935C15.2453 7.94698 15.4056 7.97752 15.4972 8.00806C16.3446 8.26762 16.8943 9.01576 17.0775 10.1532C17.1309 10.5808 17.1157 11.2297 17.0241 11.5503C16.9248 11.8633 16.7569 12.2145 16.5736 12.4511C16.2225 12.871 16.0011 12.9473 15.0468 12.9473C14.5277 12.9473 14.0086 12.9092 13.9322 12.8634C13.9017 12.8557 13.8712 12.8328 13.8559 12.8099C13.8483 12.7946 13.8406 11.7335 13.8406 10.451V8.11493L13.9093 8.0615C13.9322 8.03859 14.0391 8.00042 14.1231 7.98515C14.2987 7.94698 14.7796 7.90881 14.8941 7.91645C14.9323 7.92408 15.0392 7.93172 15.1461 7.93935ZM11.0694 7.4813C11.0007 7.52711 10.9931 7.60345 11.0465 7.64162C11.0542 7.65689 11.1916 7.67216 11.329 7.67979C11.9016 7.72559 12.184 7.84774 12.3214 8.12257C12.4512 8.37449 12.4512 8.38213 12.4741 11.7488L12.4818 14.8788H13.1612H13.8406V14.1688C13.8406 13.5733 13.8483 13.4664 13.8788 13.4359C13.9322 13.3901 15.0697 13.4283 15.4285 13.4817C15.9476 13.5581 16.3217 13.7031 16.7263 13.9932C16.9783 14.1764 17.3829 14.5963 17.5661 14.8635C17.8867 15.3215 18.1386 15.9933 18.2302 16.6117C18.2837 16.9629 18.2913 17.5812 18.2455 17.8408C18.0928 18.6882 17.5966 19.2836 16.7874 19.5508C16.4973 19.6577 16.2377 19.6883 15.8331 19.6883C14.8025 19.6883 14.0926 19.4211 13.9628 18.963C13.9093 18.7874 13.8712 18.4668 13.8559 17.9248L13.8406 17.4744H13.1536H12.4818L12.4741 17.6499C12.4512 17.7492 12.4436 17.9324 12.4436 18.0698C12.4436 18.5889 12.3749 19.1768 12.2909 19.4745C12.184 19.8028 12.0237 19.902 11.5428 19.9402C11.3137 19.9554 11.2603 19.986 11.2679 20.07C11.2832 20.2074 11.3366 20.215 12.2604 20.1845C12.7337 20.1616 13.2604 20.1539 13.4437 20.1616C13.6192 20.1768 14.1689 20.1997 14.6498 20.2226C15.3675 20.2608 15.5965 20.2608 15.8942 20.2379C16.7874 20.1616 17.5203 19.9249 18.1692 19.4974C18.4135 19.3371 18.7952 18.9783 18.9937 18.734L19.0929 18.6271L19.0776 18.8103C19.0471 19.0928 18.9708 19.4821 18.902 19.6119C18.7875 19.8257 18.6349 19.902 18.2302 19.9402C17.9707 19.9554 17.9325 19.986 17.9402 20.07C17.9554 20.215 18.0012 20.215 19.0318 20.1845C19.696 20.1616 20.154 20.1616 20.6884 20.1845C21.0854 20.1921 21.7419 20.2074 22.1313 20.2074H22.8413V19.8333V19.4669H22.2534H21.6656L21.8641 19.1539C23.0626 17.3828 26.33 12.3595 27.8416 9.99293C29.0783 8.05386 29.2768 7.72559 29.2768 7.65689C29.2768 7.48894 29.4066 7.51184 27.3148 7.49657L25.3987 7.48894V7.80957V8.1302H26.3988H27.4065L27.3759 8.19128C27.1698 8.58825 24.9406 12.0694 23.3604 14.4742C21.1846 17.7874 20.6503 18.5813 20.6197 18.5355C20.6045 18.5126 20.5968 16.8942 20.5892 13.8558L20.5739 9.22188L20.635 9.115C20.8182 8.84018 21.1159 8.58062 21.3908 8.4432C21.6503 8.32106 22.0244 8.24471 22.6504 8.17601L22.8031 8.16074V7.83247V7.49657L21.0472 7.4813C20.0777 7.47367 18.986 7.4584 18.6196 7.45077C18.0318 7.44313 17.9631 7.44313 17.9249 7.4813C17.8714 7.52711 17.8714 7.60345 17.9096 7.64162C17.9325 7.65689 18.0623 7.67216 18.1997 7.68742C18.5738 7.73323 18.7112 7.78667 18.8486 7.91645C18.9708 8.03096 19.0471 8.22181 19.0929 8.48137C19.1082 8.58062 19.1234 9.66466 19.1311 11.6419L19.1387 14.6574L18.9937 14.4665C18.5356 13.8863 17.7417 13.3214 17.0317 13.0695C16.9324 13.0466 16.8561 13.0084 16.8561 13.0084C16.8485 13.0008 16.9783 12.8634 17.1309 12.6801C17.6501 12.1076 17.902 11.7717 18.1005 11.3671C18.3142 10.9167 18.4058 10.512 18.4058 10.0006C18.4058 9.58832 18.3524 9.37456 18.1921 9.02339C18.0547 8.72566 17.902 8.51954 17.6424 8.27525C17.1767 7.84011 16.5813 7.58818 15.7568 7.47367C15.4896 7.44313 15.2987 7.44313 14.4132 7.4584C13.123 7.4813 13.3215 7.4813 12.123 7.4584C11.2145 7.44313 11.1229 7.44313 11.0694 7.4813Z" fill="white"/>
<path fill-rule="evenodd" clip-rule="evenodd" d="M23.3146 7.80965V8.13028H23.5818H23.8566V7.80965V7.48901H23.5818H23.3146V7.80965Z" fill="white"/>
<path fill-rule="evenodd" clip-rule="evenodd" d="M24.368 7.80965V8.13028H24.6276H24.8872V7.80965V7.48901H24.6276H24.368V7.80965Z" fill="white"/>
<path fill-rule="evenodd" clip-rule="evenodd" d="M12.4741 15.6655V15.9326H13.1536H13.8406V15.6655V15.3906H13.1536H12.4741V15.6655Z" fill="white"/>
<path fill-rule="evenodd" clip-rule="evenodd" d="M12.4741 16.7187V16.9935H13.1536H13.8406V16.7187V16.4438H13.1536H12.4741V16.7187Z" fill="white"/>
<path fill-rule="evenodd" clip-rule="evenodd" d="M29.3149 17.5202C29.2997 17.5507 29.2539 17.6729 29.231 17.795C29.0554 18.5813 28.7271 19.0165 28.1316 19.2302C27.666 19.3982 27.1163 19.4669 26.1162 19.4669H25.475V19.8486V20.2379L27.2385 20.2227L29.0019 20.215L29.063 20.1463C29.1317 20.07 29.1699 19.9478 29.2997 19.4135C29.46 18.6577 29.5211 18.2683 29.5211 17.879C29.5287 17.5584 29.5211 17.5278 29.4829 17.4897C29.4065 17.4362 29.3684 17.4515 29.3149 17.5202Z" fill="white"/>
<path fill-rule="evenodd" clip-rule="evenodd" d="M23.3833 19.4821C23.368 19.4897 23.3604 19.6576 23.3604 19.8561V20.2073H23.6275H23.9024V19.8332V19.4668H23.6504C23.513 19.4668 23.3909 19.4668 23.3833 19.4821Z" fill="white"/>
<path fill-rule="evenodd" clip-rule="evenodd" d="M24.429 19.8331V20.2148H24.6886H24.9481V19.8483V19.4743L24.6809 19.4666L24.4214 19.459L24.429 19.8331Z" fill="white"/>
<path fill-rule="evenodd" clip-rule="evenodd" d="M18.9402 23.0549C19.1005 23.4976 19.2226 23.8564 19.2226 23.8641C19.2226 23.8946 18.1157 23.8946 18.1157 23.8793C18.1157 23.8259 18.6348 22.2685 18.6501 22.2685C18.6577 22.2685 18.7951 22.6197 18.9402 23.0549ZM11.8863 21.4441C11.871 21.4822 11.7717 22.3678 11.6496 23.4366C11.5351 24.4977 11.4358 25.4062 11.4129 25.4596C11.39 25.5894 11.2984 25.6581 11.1305 25.6734C11.0541 25.681 11.0083 25.7039 11.016 25.7268C11.0236 25.7726 12.1916 25.7726 12.2145 25.7268C12.2145 25.7115 12.1611 25.681 12.0542 25.6657C11.8634 25.6352 11.8023 25.5818 11.8023 25.4214C11.8023 25.2917 12.0389 22.6274 12.0466 22.5892C12.0542 22.5663 12.0618 22.5968 12.0847 22.6274C12.2909 23.1465 13.52 25.6505 13.6039 25.7268C13.6497 25.765 13.6574 25.765 13.6879 25.7344C13.7108 25.7115 14.062 24.9863 14.4666 24.1084C15.1002 22.78 15.2224 22.5357 15.23 22.5968C15.2453 22.6274 15.314 23.3297 15.3903 24.1465C15.5201 25.5818 15.5201 25.6123 15.4743 25.6505C15.4285 25.6734 15.4285 25.6963 15.459 25.7192C15.5048 25.7726 17.9019 25.7879 17.9019 25.7344C17.9019 25.7115 17.8714 25.6963 17.8027 25.6734C17.5355 25.6352 17.5355 25.5512 17.8103 24.742L18.0241 24.1084L18.6577 24.1007C19.1387 24.0931 19.299 24.1007 19.3142 24.1236C19.3524 24.1694 19.8563 25.536 19.8563 25.5818C19.8563 25.6047 19.841 25.6428 19.8181 25.6657C19.7952 25.6963 19.7799 25.7192 19.7952 25.7344C19.8257 25.7726 20.9479 25.765 20.9556 25.7268C20.9632 25.7039 20.925 25.681 20.8334 25.6734C20.4899 25.6352 20.3754 25.4825 20.0777 24.7267C20.0013 24.5282 19.696 23.7267 19.3906 22.9556C18.7951 21.4135 18.7875 21.3906 18.7417 21.3906C18.7035 21.3906 18.6424 21.528 17.9019 23.5587C17.4897 24.6809 17.2225 25.3833 17.1691 25.4596C17.0545 25.6199 16.9477 25.6734 16.6347 25.6734C16.482 25.6734 16.3293 25.6581 16.2759 25.6428C16.1537 25.597 16.0621 25.4825 16.0163 25.3222C15.9934 25.2459 15.8789 24.345 15.7797 23.3144C15.6575 22.2762 15.5506 21.4212 15.543 21.4135C15.5201 21.383 15.4972 21.3906 15.4667 21.4288C15.4361 21.4517 15.0468 22.2685 14.5964 23.2304C14.1536 24.2 13.7795 24.9939 13.7642 25.0016C13.749 25.0092 13.3596 24.2382 12.9016 23.2915C12.4359 22.3373 12.0389 21.5128 12.016 21.4746C11.955 21.3754 11.9168 21.3677 11.8863 21.4441Z" fill="white"/>
<path fill-rule="evenodd" clip-rule="evenodd" d="M23.0855 21.7573C23.4519 21.9405 23.6504 22.3603 23.6122 22.91C23.5893 23.2764 23.4443 23.5818 23.2229 23.6963C23.1313 23.7345 23.0778 23.7498 22.7725 23.7498C22.5053 23.7498 22.406 23.7345 22.3221 23.7039L22.2305 23.6581V22.6886V21.7191L22.2915 21.6962C22.3144 21.6885 22.4824 21.6809 22.6427 21.6809C22.9023 21.6885 22.9557 21.6962 23.0855 21.7573ZM21.2838 21.4977C21.2609 21.5435 21.3067 21.5664 21.4441 21.574C21.6045 21.5893 21.6732 21.6351 21.719 21.742C21.7724 21.8489 21.7724 25.2231 21.719 25.4445C21.6884 25.6048 21.635 25.6506 21.4594 25.6736C21.3983 25.6812 21.3525 25.7117 21.3678 25.7194C21.3754 25.7652 22.7114 25.7804 22.7572 25.7423C22.803 25.7041 22.7572 25.6812 22.5816 25.6659C22.3755 25.643 22.3144 25.6048 22.2839 25.4827C22.261 25.4369 22.2457 25.1163 22.2381 24.6658L22.2228 23.9253L22.6198 23.9559C22.8335 23.9635 23.0168 23.9711 23.0168 23.9711C23.0168 23.9711 23.1465 24.1544 23.2992 24.3681C24.0321 25.3606 24.223 25.5743 24.4596 25.6812C24.6123 25.7499 24.6276 25.7499 25.078 25.7499C25.5895 25.7499 25.6887 25.7194 25.3604 25.6659C24.8795 25.5896 24.6963 25.4369 23.7878 24.2765C23.597 24.0322 23.4443 23.8261 23.4443 23.8185C23.4443 23.8108 23.4824 23.7498 23.5435 23.6963C23.9176 23.3299 24.1313 22.8566 24.1084 22.4596C24.0779 22.1084 23.8718 21.7878 23.5588 21.6427C23.2763 21.4977 23.1924 21.4901 22.2152 21.4824C21.7113 21.4824 21.2991 21.4901 21.2838 21.4977Z" fill="white"/>
<path fill-rule="evenodd" clip-rule="evenodd" d="M25.5589 21.4976C25.536 21.5435 25.5742 21.5664 25.7192 21.574C25.8795 21.5893 25.9482 21.6351 25.994 21.7419C26.0475 21.8488 26.0475 25.2231 25.994 25.4445C25.9559 25.6048 25.9101 25.6506 25.7345 25.6735C25.6734 25.6811 25.6276 25.7117 25.6352 25.7193C25.6505 25.7651 26.9636 25.7804 27.0017 25.7422C27.0399 25.704 27.017 25.6964 26.8567 25.6735C26.6658 25.6506 26.5895 25.6048 26.5513 25.4827C26.5208 25.3987 26.4826 23.8261 26.5132 23.6428C26.5132 23.5818 26.5437 23.6047 26.9407 24.0398C27.4903 24.6582 28.1698 25.3529 28.3606 25.5056C28.4446 25.5666 28.582 25.6506 28.6584 25.6811C28.8034 25.7498 28.8187 25.7498 29.2691 25.7498C29.5821 25.7498 29.7271 25.7422 29.7424 25.7269C29.75 25.7117 29.6813 25.6811 29.5668 25.6659C29.2233 25.6048 28.9714 25.4445 28.3377 24.8261C27.9102 24.4139 26.9407 23.3909 26.9407 23.368C26.9407 23.3298 27.559 22.7191 28.2156 22.0855C28.582 21.7343 28.7729 21.6122 29.0095 21.574C29.1011 21.5664 29.1393 21.5511 29.1393 21.5205C29.1393 21.49 29.063 21.4824 28.5973 21.4824C28.2843 21.4824 28.0324 21.49 28.0247 21.5053C28.0247 21.5129 28.04 21.5511 28.0858 21.5816C28.124 21.6198 28.1469 21.658 28.1469 21.6809C28.1469 21.7496 27.9942 21.9328 27.2537 22.6886L26.5132 23.4596V22.7267C26.5055 22.3298 26.5132 21.9404 26.5132 21.8641C26.5361 21.6732 26.6048 21.6045 26.7727 21.574C26.8872 21.5664 26.933 21.5282 26.9025 21.4976C26.872 21.4747 25.5742 21.4747 25.5589 21.4976Z" fill="white"/>
<path d="M29.9049 27.3301H10.6266V27.8794H29.9049V27.3301Z" fill="white" stroke="white" stroke-width="0.199982"/>
<path d="M10.5273 31.7504V29.3457H11.3671C11.535 29.3457 11.6725 29.3686 11.7793 29.422C11.8862 29.4678 11.9702 29.5442 12.0236 29.6434C12.0847 29.7427 12.1152 29.8419 12.1152 29.9564C12.1152 30.0633 12.0923 30.1549 12.0389 30.2542C11.9855 30.3381 11.9091 30.4145 11.7946 30.4679C11.932 30.5137 12.0389 30.5901 12.1152 30.6817C12.1839 30.7886 12.2221 30.9107 12.2221 31.0557C12.2221 31.1703 12.2068 31.2695 12.161 31.3687C12.1152 31.4604 12.0542 31.5443 11.9931 31.5901C11.9244 31.6436 11.8404 31.6817 11.7412 31.7123C11.6496 31.7428 11.5274 31.7504 11.3824 31.7504H10.5273ZM10.8174 30.3534H11.306C11.4434 30.3534 11.535 30.3458 11.5885 30.3305C11.6648 30.3076 11.7259 30.2618 11.7641 30.2084C11.8022 30.1473 11.8251 30.0786 11.8251 30.0022C11.8251 29.9183 11.8022 29.8419 11.7717 29.7885C11.7259 29.7274 11.6877 29.6816 11.6114 29.6663C11.5427 29.6358 11.4358 29.6282 11.2679 29.6282H10.8174V30.3534ZM10.8174 31.4756H11.3824C11.474 31.4756 11.5427 31.4604 11.5885 31.4527C11.6496 31.4451 11.7106 31.4222 11.7564 31.3916C11.8022 31.3611 11.8404 31.3153 11.8709 31.2542C11.9015 31.1932 11.9168 31.1245 11.9168 31.0557C11.9168 30.9641 11.8939 30.8802 11.848 30.8115C11.8022 30.7504 11.7412 30.7046 11.6648 30.674C11.5961 30.6511 11.4816 30.6435 11.3366 30.6435H10.8174V31.4756Z" fill="white"/>
<path d="M12.6344 31.7504V29.3457H14.2681V29.6282H12.9398V30.361H14.1841V30.6511H12.9398V31.4756H14.3215V31.7504H12.6344Z" fill="white"/>
<path d="M14.749 29.3457H16.2071V29.6282H15.0468V30.3763H15.5888C15.7873 30.3763 15.9399 30.3916 16.0621 30.4374C16.1766 30.4679 16.2682 30.5443 16.3369 30.6588C16.4133 30.7733 16.4514 30.9031 16.4514 31.0481C16.4514 31.1703 16.4285 31.2924 16.3751 31.3916C16.3217 31.4985 16.2453 31.5825 16.1461 31.6512C16.0468 31.7123 15.8712 31.7504 15.6269 31.7504H14.749V29.3457ZM15.0468 31.4833H15.6498C15.8025 31.4833 15.9247 31.4451 16.0087 31.3764C16.085 31.3077 16.1232 31.1932 16.1232 31.0557C16.1232 30.9641 16.1079 30.8725 16.0545 30.8115C16.0087 30.7427 15.9476 30.7046 15.8636 30.674C15.7873 30.6588 15.6498 30.6435 15.4437 30.6435H15.0468V31.4833Z" fill="white"/>
<path d="M16.6576 31.0326V30.7349H17.5126V31.0326H16.6576Z" fill="white"/>
<path d="M19.4517 30.9106L19.757 30.9869C19.696 31.2465 19.5814 31.445 19.4211 31.5824C19.2532 31.7198 19.0547 31.7885 18.818 31.7885C18.5814 31.7885 18.3829 31.7427 18.2302 31.6358C18.0775 31.5213 17.963 31.3763 17.8867 31.1778C17.8027 30.9717 17.7645 30.7656 17.7645 30.5289C17.7645 30.277 17.8103 30.0632 17.8943 29.8724C17.9935 29.6891 18.1233 29.5441 18.2836 29.4449C18.4516 29.3532 18.6348 29.2998 18.8333 29.2998C19.0547 29.2998 19.2455 29.3685 19.3906 29.4907C19.5509 29.6128 19.6578 29.7884 19.7189 30.0021L19.4288 30.0785C19.3753 29.9029 19.299 29.7731 19.1921 29.6968C19.1005 29.6204 18.9784 29.5746 18.818 29.5746C18.6501 29.5746 18.505 29.6204 18.3905 29.7044C18.276 29.796 18.192 29.9182 18.1462 30.0632C18.0928 30.2159 18.0775 30.3762 18.0775 30.5289C18.0775 30.735 18.1004 30.9106 18.1539 31.0633C18.2149 31.216 18.2989 31.3305 18.4134 31.3992C18.5356 31.4832 18.6577 31.5137 18.7951 31.5137C18.9707 31.5137 19.1081 31.4603 19.2226 31.3687C19.3372 31.2618 19.4211 31.1091 19.4517 30.9106Z" fill="white"/>
<path d="M20.5968 31.7504V29.6282H19.8486V29.3457H21.635V29.6282H20.8869V31.7504H20.5968Z" fill="white"/>
<path d="M21.7113 29.3457H22.0167L22.7572 30.8267L23.3984 29.3457H23.6885L22.8412 31.2161C22.7419 31.4527 22.6503 31.6054 22.5816 31.6817C22.5129 31.7504 22.4213 31.781 22.2915 31.781C22.2228 31.781 22.1235 31.7657 22.0167 31.7199V31.4527C22.093 31.5062 22.177 31.5291 22.261 31.5291C22.3449 31.5291 22.406 31.5062 22.4518 31.4527C22.5053 31.3993 22.5663 31.2924 22.6274 31.1092L21.7113 29.3457Z" fill="white"/>
<path d="M24.0016 29.3457H25.3758V31.4756H25.5742V32.3077H25.3147V31.7504H23.8184V32.3077H23.5588V31.4756H23.7344C23.9176 31.1779 24.0016 30.5901 24.0016 29.6969V29.3457ZM25.0857 29.6282H24.2993V29.7503C24.2993 29.9564 24.2764 30.2313 24.2459 30.5901C24.2077 30.9412 24.139 31.239 24.0398 31.4756H25.0857V29.6282Z" fill="white"/>
<path d="M25.9407 29.3457H26.2079V31.2466L27.4141 29.3457H27.7042V31.7504H27.437V29.8572L26.2384 31.7504H25.9407V29.3457Z" fill="white"/>
<path d="M29.9791 31.7504V29.3457H28.979C28.7805 29.3457 28.6278 29.3686 28.521 29.4144C28.4141 29.4526 28.3377 29.5289 28.2767 29.6358C28.208 29.7503 28.185 29.8725 28.185 30.0022C28.185 30.1778 28.2309 30.3152 28.3377 30.4374C28.4446 30.5443 28.5973 30.6206 28.811 30.6588C28.7347 30.6969 28.6736 30.7351 28.6278 30.7733C28.5439 30.8573 28.4675 30.9718 28.3912 31.0939L28.0018 31.7504H28.3683L28.666 31.2466C28.75 31.1092 28.8339 30.9947 28.8798 30.9183C28.9408 30.842 28.9866 30.7886 29.0401 30.7504C29.0782 30.7275 29.124 30.7046 29.1699 30.6969C29.2004 30.6817 29.2538 30.6817 29.3302 30.6817H29.6813V31.7504H29.9791ZM29.6813 30.4068H29.0401C28.9103 30.4068 28.7958 30.3916 28.7194 30.361C28.6507 30.3305 28.5897 30.2847 28.5439 30.216C28.5133 30.1473 28.4828 30.0786 28.4828 30.0022C28.4828 29.8877 28.5286 29.7961 28.6049 29.7121C28.6813 29.6434 28.8034 29.6129 28.9714 29.6129H29.6813V30.4068Z" fill="white"/>
</svg>
